<?xml version="1.0" standalone="no"?>
<!DOCTYPE svg PUBLIC "-//W3C//DTD SVG 20010904//EN"
 "http://www.w3.org/TR/2001/REC-SVG-20010904/DTD/svg10.dtd">
<svg version="1.0" xmlns="http://www.w3.org/2000/svg"
 width="1024.000000pt" height="1024.000000pt" viewBox="0 0 1024.000000 1024.000000"
 preserveAspectRatio="xMidYMid meet">
<metadata>
Created by potrace 1.14, written by Peter Selinger 2001-2017
</metadata>
<g transform="translate(0.000000,1024.000000) scale(0.100000,-0.100000)"
fill="#000000" stroke="none">
<path d="M2375 10229 c-509 -25 -836 -101 -1175 -275 -204 -104 -377 -233
-546 -406 -332 -340 -531 -754 -603 -1254 -46 -320 -46 -297 -46 -3174 0
-2877 0 -2854 46 -3174 75 -518 288 -947 641 -1292 339 -331 755 -531 1254
-603 320 -46 297 -46 3174 -46 2135 0 2759 3 2880 13 438 36 711 105 1008 252
362 181 661 454 875 800 56 91 155 298 192 400 71 200 122 463 147 770 19 226
19 5534 0 5760 -25 307 -76 570 -147 770 -35 98 -140 316 -195 405 -77 125
-181 258 -294 373 -184 188 -351 309 -591 428 -283 139 -533 203 -970 246
-143 14 -5372 21 -5650 7z m3545 -1513 c579 -75 1090 -267 1555 -584 784 -535
1318 -1367 1474 -2297 38 -227 46 -327 46 -585 -1 -257 -10 -378 -46 -590
-194 -1145 -967 -2133 -2034 -2601 -113 -49 -474 -179 -499 -179 -4 0 -5 176
-4 391 l3 392 135 56 c233 98 404 196 595 339 413 308 729 723 918 1202 127
323 182 622 181 995 0 461 -90 832 -297 1240 -577 1131 -1858 1716 -3095 1414
-805 -196 -1488 -765 -1835 -1527 -89 -194 -180 -484 -201 -637 -4 -28 -11
-57 -15 -63 -6 -10 -42 -10 -172 -1 -154 11 -451 7 -541 -8 -37 -5 -38 -5 -38
24 0 17 9 84 21 149 234 1354 1254 2454 2584 2788 140 35 349 72 485 85 63 6
131 13 150 15 83 9 514 -4 630 -18z m-267 -1015 c45 -11 84 -44 102 -86 8 -18
52 -492 111 -1207 l98 -1177 403 -512 c260 -331 406 -525 413 -548 18 -66 -2
-106 -109 -214 -53 -54 -108 -105 -123 -113 -39 -20 -107 -17 -146 6 -80 49
-1225 936 -1252 970 -44 56 -72 127 -77 200 -7 96 194 2566 211 2599 21 39 61
72 98 81 46 11 225 11 271 1z m-2853 -2346 c239 -30 443 -85 583 -157 407
-210 117 -485 -605 -575 -181 -22 -565 -22 -746 0 -246 31 -457 84 -587 149
-269 135 -273 300 -8 432 175 88 408 139 773 170 95 8 470 -4 590 -19z m-1489
-753 c138 -134 496 -231 923 -251 641 -30 1209 109 1320 324 15 29 16 24 16
-93 0 -195 -16 -216 -165 -226 -340 -21 -687 -114 -871 -231 l-59 -38 -205 6
c-434 12 -796 106 -952 246 -71 63 -78 86 -78 238 1 116 2 125 14 97 8 -17 33
-50 57 -72z m8 -523 c142 -126 457 -213 884 -244 76 -6 88 -9 82 -23 -3 -9 -9
-67 -12 -129 l-6 -112 -66 5 c-430 33 -742 120 -885 245 -67 59 -76 87 -76
236 0 125 1 127 17 95 9 -18 37 -51 62 -73z m2746 -15 c488 -52 812 -208 792
-380 -35 -313 -1124 -484 -1865 -293 -329 84 -503 222 -447 355 102 245 812
394 1520 318z m-2734 -514 c147 -116 468 -204 829 -228 l105 -7 3 -127 3 -128
-58 0 c-32 0 -116 7 -187 15 -397 46 -699 163 -766 295 -17 33 -20 59 -20 167
l1 128 20 -37 c11 -21 42 -56 70 -78z m1223 -178 c64 -124 324 -235 671 -286
680 -101 1484 39 1615 283 l20 36 -2 -135 c-3 -120 -5 -138 -25 -165 -21 -31
-23 -31 -160 -43 -380 -35 -665 -113 -859 -237 l-59 -38 -160 7 c-569 25 -973
155 -1050 338 -10 26 -15 71 -15 153 0 63 2 115 5 115 2 0 11 -13 19 -28z
m-1219 -343 c98 -74 264 -137 472 -179 111 -22 341 -50 416 -50 l47 0 0 -130
0 -130 -37 0 c-77 0 -316 30 -435 54 -227 46 -394 114 -481 195 -70 64 -77 87
-77 238 l0 128 21 -43 c13 -26 43 -59 74 -83z m1277 -244 c142 -122 476 -216
858 -241 l106 -6 -4 -127 c-2 -69 -6 -128 -8 -130 -7 -7 -277 20 -393 39 -327
56 -568 166 -622 284 -15 33 -19 66 -18 166 l0 125 19 -36 c11 -21 39 -54 62
-74z m2841 -24 c274 -43 487 -114 600 -200 69 -52 97 -98 97 -156 0 -58 -28
-104 -97 -156 -114 -87 -325 -157 -605 -201 -125 -19 -182 -22 -453 -22 -249
-1 -334 3 -430 17 -388 58 -643 161 -713 286 -73 129 36 252 307 346 116 39
295 78 441 94 52 6 109 13 125 15 17 2 156 3 310 1 225 -2 307 -7 418 -24z
m-4140 -228 c135 -124 462 -218 870 -249 l87 -6 0 -130 0 -129 -82 6 c-411 31
-730 121 -869 244 -71 62 -79 87 -79 238 1 114 2 125 14 98 7 -16 34 -49 59
-72z m1308 -274 c160 -122 454 -201 872 -234 l77 -7 0 -129 0 -129 -72 5
c-444 35 -765 126 -898 255 -60 59 -70 92 -70 239 l0 115 28 -45 c16 -24 44
-56 63 -70z m1287 -251 c47 -42 144 -94 247 -131 327 -117 918 -150 1355 -76
314 53 550 154 615 262 l25 42 0 -128 c0 -146 -5 -161 -73 -224 -113 -104
-351 -184 -682 -229 -182 -25 -628 -25 -805 -1 -337 47 -575 127 -687 230 -68
63 -73 78 -73 224 l0 128 18 -30 c11 -16 37 -47 60 -67z"/>
</g>
</svg>
